<?xml version="1.0" encoding="utf-8"?><svg xmlns="http://www.w3.org/2000/svg" xmlns:xlink="http://www.w3.org/1999/xlink"><symbol fill="none" viewBox="0 0 27 13" id="arrow" xmlns="http://www.w3.org/2000/svg"><path d="M20.959 1.442L26 6.5l-5.041 5.058M1 6.5h24.917" stroke="#fff" stroke-width="1.5" stroke-miterlimit="10" stroke-linecap="round" stroke-linejoin="round"/></symbol><symbol fill="none" viewBox="0 0 30 30" id="calendar" xmlns="http://www.w3.org/2000/svg"><path d="M20.937 4.45V2.5A.944.944 0 0020 1.562a.944.944 0 00-.938.938v1.875h-8.125V2.5A.944.944 0 0010 1.562a.944.944 0 00-.938.938v1.95C5.687 4.763 4.05 6.775 3.8 9.762a.628.628 0 00.625.663h21.15c.362 0 .662-.313.625-.663-.25-2.987-1.888-5-5.263-5.312zM23.75 18.75c-2.762 0-5 2.238-5 5 0 .938.262 1.825.725 2.575a4.962 4.962 0 004.275 2.425 4.962 4.962 0 004.275-2.425c.463-.75.725-1.637.725-2.575 0-2.762-2.238-5-5-5zm2.587 4.462l-2.662 2.463a.954.954 0 01-.637.25.927.927 0 01-.663-.275l-1.238-1.237a.943.943 0 010-1.326.943.943 0 011.325 0l.6.6 2-1.85a.944.944 0 011.325.05.944.944 0 01-.05 1.325z" fill="#59A49E"/><path d="M25 12.3H5c-.688 0-1.25.563-1.25 1.25v7.7C3.75 25 5.625 27.5 10 27.5h6.163c.862 0 1.462-.837 1.187-1.65-.25-.725-.463-1.525-.463-2.1 0-3.788 3.088-6.875 6.875-6.875.363 0 .726.025 1.075.087a1.244 1.244 0 001.425-1.224v-2.175A1.275 1.275 0 0025 12.3zM11.512 22.762a1.314 1.314 0 01-.887.363c-.325 0-.65-.137-.887-.363a1.314 1.314 0 01-.363-.887c0-.325.137-.65.363-.887.125-.113.25-.2.412-.263a1.249 1.249 0 011.362.262c.226.238.363.563.363.888 0 .325-.137.65-.363.887zm0-4.375l-.187.15a.946.946 0 01-.225.113.795.795 0 01-.225.075 1.879 1.879 0 01-.25.025c-.325 0-.65-.137-.887-.363a1.314 1.314 0 01-.363-.887c0-.325.137-.65.363-.887a1.262 1.262 0 011.137-.338c.075.013.15.038.225.075.075.025.15.063.225.112l.188.15c.225.238.362.563.362.888 0 .325-.137.65-.363.887zm4.375 0a1.314 1.314 0 01-.887.363c-.325 0-.65-.137-.887-.363a1.314 1.314 0 01-.363-.887c0-.325.137-.65.363-.887.475-.463 1.312-.463 1.774 0 .226.237.363.562.363.887 0 .325-.137.65-.363.887z" fill="#FFB23F"/></symbol><symbol fill="none" viewBox="0 0 51 51" id="flying-star" xmlns="http://www.w3.org/2000/svg"><path clip-rule="evenodd" d="M39.187 17.176c-16.182 9.81-18.908 10.976-25.278 5.217 1.58 5.503.858 9.505-2.086 13.6 7.286-2.221 8.615-.193 12.314 2.346-2.277-7.187.916-9.551 15.05-21.163z" stroke="#FFB23F" stroke-width="3" stroke-miterlimit="1.5" stroke-linecap="round" stroke-linejoin="round"/><path d="M33.112 31.79c.231.755.323 1.557.472 2.33M30.07 36.656c.599-.092 1.204-.262 1.797-.4M34.31 37.673c-.001.741.131 1.7.365 2.415M36.224 35.536c.8.065 1.642-.258 2.44-.357M18.59 10.7c.086.848.23 1.684.398 2.517M15.263 15.45c.633-.056 1.24-.135 1.864-.248M19.658 16.73c.013.791.171 1.633.332 2.412M21.66 14.56c.722-.18 1.389-.422 2.135-.508" stroke="#FFB23F" stroke-width="3" stroke-miterlimit="1.5" stroke-linecap="round" stroke-linejoin="round"/></symbol><symbol fill="none" viewBox="0 0 131 42" id="logo" xmlns="http://www.w3.org/2000/svg"><path d="M42 0H0v42h42V0z" fill="#fff"/><path d="M32.903 20.601l-.938 3.5H13.653L8.67 5.506h3.626L16.338 20.6h16.565z" fill="#AD7E5C"/><path d="M31.402 26.2l-.938 3.5H9.607l-.938-3.5h22.733z" fill="#518581"/><path d="M29.9 31.801l-.938 3.5h-14.37l-.939-3.5H29.9z" fill="#A6D8D1"/><path d="M54 12.216h3.264v15h7.656v2.88H54v-17.88zM70.727 30.384c-1.376 0-2.472-.336-3.288-1.008-.8-.672-1.2-1.584-1.2-2.736 0-1.104.376-2.016 1.128-2.736.752-.72 1.88-1.2 3.384-1.44l3.888-.624v-.432a1.75 1.75 0 00-.672-1.416c-.432-.368-1.008-.552-1.728-.552-.672 0-1.272.184-1.8.552a3.083 3.083 0 00-1.128 1.416l-2.568-1.248c.384-1.024 1.088-1.848 2.112-2.472 1.024-.624 2.192-.936 3.504-.936 1.056 0 1.992.2 2.808.6.832.384 1.472.936 1.92 1.656.464.704.696 1.504.696 2.4v8.688h-2.976v-1.392c-1.024 1.12-2.384 1.68-4.08 1.68zm-1.224-3.864c0 .448.168.808.504 1.08.336.256.768.384 1.296.384.976 0 1.776-.304 2.4-.912.624-.624.936-1.392.936-2.304v-.528l-3.288.552c-.624.128-1.088.336-1.392.624-.304.272-.456.64-.456 1.104zM80.69 11.928h3.143v18.168H80.69V11.928zM90.696 30.384c-1.376 0-2.472-.336-3.288-1.008-.8-.672-1.2-1.584-1.2-2.736 0-1.104.376-2.016 1.128-2.736.752-.72 1.88-1.2 3.384-1.44l3.888-.624v-.432a1.75 1.75 0 00-.672-1.416c-.432-.368-1.008-.552-1.728-.552-.672 0-1.272.184-1.8.552a3.083 3.083 0 00-1.128 1.416l-2.568-1.248c.384-1.024 1.088-1.848 2.112-2.472 1.024-.624 2.192-.936 3.504-.936 1.056 0 1.992.2 2.808.6.832.384 1.472.936 1.92 1.656.464.704.696 1.504.696 2.4v8.688h-2.976v-1.392c-1.024 1.12-2.384 1.68-4.08 1.68zm-1.224-3.864c0 .448.168.808.504 1.08.336.256.768.384 1.296.384.976 0 1.776-.304 2.4-.912.624-.624.936-1.392.936-2.304v-.528l-3.288.552c-.624.128-1.088.336-1.392.624-.304.272-.456.64-.456 1.104zM105.554 30.36c-1.312 0-2.472-.312-3.48-.936a5.122 5.122 0 01-2.112-2.568l2.328-1.2c.352.704.816 1.256 1.392 1.656a3.5 3.5 0 001.944.576c.608 0 1.08-.12 1.416-.36.352-.256.528-.6.528-1.032 0-.368-.144-.672-.432-.912-.288-.256-.664-.424-1.128-.504l-2.136-.36c-1.104-.288-1.96-.776-2.568-1.464-.592-.704-.888-1.528-.888-2.472 0-.784.208-1.48.624-2.088.416-.624.992-1.104 1.728-1.44.752-.336 1.6-.504 2.544-.504 1.2 0 2.256.288 3.168.864a4.865 4.865 0 011.992 2.352l-2.328 1.2a3.084 3.084 0 00-1.176-1.344 3.197 3.197 0 00-1.752-.504c-.528 0-.952.12-1.272.36-.304.24-.456.552-.456.936 0 .704.528 1.176 1.584 1.416l2.088.384c1.104.304 1.96.8 2.568 1.488.608.688.912 1.504.912 2.448 0 .784-.216 1.48-.648 2.088-.416.608-1.008 1.08-1.776 1.416-.768.336-1.656.504-2.664.504zM112.986 17.04h3.144v13.056h-3.144V17.04zm-.24-3.6c0-.576.16-1.024.48-1.344.32-.32.76-.48 1.32-.48.576 0 1.024.16 1.344.48.32.32.48.768.48 1.344 0 .56-.16 1-.48 1.32-.304.32-.752.48-1.344.48-.56 0-1-.16-1.32-.48-.32-.32-.48-.76-.48-1.32zM122.993 30.384c-1.376 0-2.472-.336-3.288-1.008-.8-.672-1.2-1.584-1.2-2.736 0-1.104.376-2.016 1.128-2.736.752-.72 1.88-1.2 3.384-1.44l3.888-.624v-.432a1.75 1.75 0 00-.672-1.416c-.432-.368-1.008-.552-1.728-.552-.672 0-1.272.184-1.8.552a3.083 3.083 0 00-1.128 1.416l-2.568-1.248c.384-1.024 1.088-1.848 2.112-2.472 1.024-.624 2.192-.936 3.504-.936 1.056 0 1.992.2 2.808.6.832.384 1.472.936 1.92 1.656.464.704.696 1.504.696 2.4v8.688h-2.976v-1.392c-1.024 1.12-2.384 1.68-4.08 1.68zm-1.224-3.864c0 .448.168.808.504 1.08.336.256.768.384 1.296.384.976 0 1.776-.304 2.4-.912.624-.624.936-1.392.936-2.304v-.528l-3.288.552c-.624.128-1.088.336-1.392.624-.304.272-.456.64-.456 1.104z" fill="#151411"/></symbol><symbol fill="none" viewBox="0 0 30 30" id="money-tick" xmlns="http://www.w3.org/2000/svg"><path d="M21.25 5H8.75C5 5 2.5 6.875 2.5 11.25v4.45c0 .463.475.75.888.563a6.922 6.922 0 014.125-.513c3.287.587 5.7 3.637 5.612 6.975a6.346 6.346 0 01-.225 1.537c-.1.388.213.75.612.75h7.738c3.75 0 6.25-1.875 6.25-6.25V11.25C27.5 6.875 25 5 21.25 5zM15 18.125a3.126 3.126 0 010-6.25 3.126 3.126 0 010 6.25zm9.063-.625a.944.944 0 01-.938.938.944.944 0 01-.938-.938v-5c0-.512.425-.938.938-.938.512 0 .938.426.938.938v5z" fill="#FFB23F"/><path d="M6.25 17.5c-2.763 0-5 2.238-5 5 0 .938.262 1.825.725 2.575A4.962 4.962 0 006.25 27.5a4.962 4.962 0 004.275-2.425c.463-.75.725-1.637.725-2.575 0-2.762-2.238-5-5-5zm2.463 4.587L6.05 24.55a.954.954 0 01-.638.25.927.927 0 01-.662-.275l-1.237-1.237a.943.943 0 010-1.326.943.943 0 011.325 0l.6.6 2-1.85a.944.944 0 011.324.05.944.944 0 01-.05 1.325z" fill="#40B4A6"/></symbol><symbol fill="none" viewBox="0 0 40 40" id="quote" xmlns="http://www.w3.org/2000/svg"><path d="M13.483 19.383H5.666c.134-7.783 1.667-9.066 6.45-11.9.55-.333.734-1.033.4-1.6a1.144 1.144 0 00-1.583-.4c-5.633 3.333-7.6 5.367-7.6 15.05v8.983c0 2.85 2.317 5.15 5.15 5.15h5c2.933 0 5.15-2.216 5.15-5.15v-5c0-2.916-2.217-5.133-5.15-5.133zM31.516 19.383H23.7c.133-7.783 1.666-9.066 6.45-11.9.55-.333.733-1.033.4-1.6a1.164 1.164 0 00-1.6-.4c-5.634 3.333-7.6 5.367-7.6 15.067v8.983c0 2.85 2.316 5.15 5.15 5.15h5c2.933 0 5.15-2.216 5.15-5.15v-5c.016-2.933-2.2-5.15-5.134-5.15z" fill="#40B4A6"/></symbol><symbol viewBox="0 0 0 0" id="sprite.symbol" xmlns="http://www.w3.org/2000/svg"/><symbol fill="none" viewBox="0 0 24 24" id="star" xmlns="http://www.w3.org/2000/svg"><path d="M12 2l3.09 6.26L22 9.27l-5 4.87 1.18 6.88L12 17.77l-6.18 3.25L7 14.14 2 9.27l6.91-1.01L12 2z" fill="#FFB23F" stroke="#FFB23F" stroke-width="1.5" stroke-linecap="round" stroke-linejoin="round"/></symbol><symbol fill="none" viewBox="0 0 327 327" id="swirl-arrow" xmlns="http://www.w3.org/2000/svg"><path d="M175.772 245.176c8.061-.86 18.889-2.253 26.596-4.446m0 0c.888-.253-2.892-6.06-3.088-6.313-4.314-5.554-9.221-10.373-14.328-15.178m17.416 21.491c-43.762-5.057-75.348-36.461-76.066-67.86-.072-3.112-.146-6.499.081-9.878m0 0c.363-5.382 1.49-10.743 4.614-14.94 2.884-3.873 8.271-7.704 13.283-7.069 9.362 1.187 12.061 13.409 5.704 19.914-5.586 5.716-17.316 6.893-23.601 2.095zm0 0a12.987 12.987 0 01-.39-.312c-30.802-25.717-13.102-69.45 15.796-85.04" stroke="#A6D8D2" stroke-width="5" stroke-miterlimit="1.5" stroke-linecap="round" stroke-linejoin="round"/></symbol><symbol fill="none" viewBox="0 0 30 30" id="three-squares" xmlns="http://www.w3.org/2000/svg"><path d="M15 23.125v1.1c0 2.337-.938 3.275-3.287 3.275H5.775A3.27 3.27 0 012.5 24.225v-5.938c0-2.35.938-3.287 3.275-3.287h1.1v4.375a3.745 3.745 0 003.75 3.75H15z" fill="#59A49E"/><path d="M21.25 16.875v1.087a3.292 3.292 0 01-3.288 3.288h-5.937c-2.338 0-3.275-.938-3.275-3.288v-5.937a3.27 3.27 0 013.275-3.275h1.1v4.375a3.745 3.745 0 003.75 3.75h4.375z" fill="#FFB23F"/><path d="M27.5 5.775v5.938c0 2.35-.938 3.287-3.288 3.287h-5.937C15.938 15 15 14.062 15 11.713V5.775c0-2.338.938-3.275 3.275-3.275h5.938c2.35 0 3.287.938 3.287 3.275z" fill="#59A49E"/></symbol></svg>